<svg id="Layer_1" data-name="Layer 1" xmlns="http://www.w3.org/2000/svg" viewBox="0 0 690.94 244.84"><path d="M436.35,177.78H401.69V54.54h34.57V71.32c4.1-3.92,7.45-7.38,11.07-10.52,18.7-16.26,61.35-12.21,66.44,25.74,1.24,9.24,1.08,18.72.92,28.07-.31,18.75,3.94,36.08,15.24,51.23,15.55,20.84,36.73,30.14,62.5,29.94,24.21-.19,45.22-7.88,62.1-25.67.47-.49,1-.9,1.79-1.58l27.73,22.75c-1.62,2-3,4-4.74,5.72-19.49,19.61-42.94,31.54-70.32,35.31-25.31,3.47-49.28-1.75-72-12.89-30.17-14.79-49-38.66-56.1-71.55-3-13.68-2.26-27.57-2.05-41.42.18-11.64-3.83-19.38-12.5-21.78-14.34-4-29,1.56-29.7,20.26-.82,22.53-.25,45.11-.28,67.67Z"/><path d="M352.56,70V9.37h34.75V177.75H352.79V160.7a24.48,24.48,0,0,0-2.36,2.12c-19.14,24.46-53.24,21.25-72.18,4.23-17.62-15.83-22.23-36.38-20.38-59,1-12.21,4.63-23.49,11.77-33.56,18.53-26.16,58.66-31,80.09-7C350.34,68.1,351.1,68.66,352.56,70Zm-60.71,46.24c.74,4.24,1,8.64,2.32,12.7,4,12.34,12.37,20.32,25.45,21.89,12.27,1.47,21.82-3.9,28.38-14.2,7.92-12.43,7-31.78-1.84-43.61a29.09,29.09,0,0,0-41.35-5.36C295.67,95,292.29,104.78,291.85,116.21Z"/><path d="M649.35,128.19h-86.1c1.82,10,6.43,17.75,15.39,21.52,16.87,7.11,32,3,45.26-9.29l19.74,17.51a57.29,57.29,0,0,1-21,16.68c-24.31,11.48-58.24,7.42-77.27-13.16-13.44-14.53-18.16-32-16.47-51.47,1.29-14.84,6.53-28,16.75-38.93,13.87-14.8,31.12-20.6,51.19-18.7,13,1.23,24.44,5.75,33.87,14.9,11.36,11,16.68,24.93,18.6,40.3.63,5,.65,10,.78,15.06A36.92,36.92,0,0,1,649.35,128.19Zm-33.51-21.72c-.27-15.38-12.13-27.15-26.47-26.87-17,.33-26,15.35-26.16,26.87Z"/><path d="M211.25,107.52c2.23-10.31-3.62-20-14.14-23.18-10.92-3.27-21.89-1.88-32.74.64-4.48,1-8.85,2.54-13.71,4L141.8,62.06c8.55-2.45,16.68-5.36,25.06-7.06,14.21-2.87,28.57-3.37,42.83.11,20.75,5.06,34,19.92,34.73,41.31.93,26.57.62,53.18.83,79.78a9.08,9.08,0,0,1-.33,1.52H211.71V164.33c-6.82,6.83-13.48,11.54-21.59,13.76-14,3.82-27.73,3.4-40.73-3.66-14.57-7.93-19.43-22.7-17.93-36.89,2.28-21.45,17.41-30.48,34.32-33.43a91.14,91.14,0,0,1,42.33,2.55C209.14,107,210.19,107.23,211.25,107.52Zm.82,25.55c1.43-4.47-1.45-6.45-5.84-7.37-2-.43-4-1.12-6.11-1.46-9.36-1.53-18.66-2-27.35,2.79-6,3.3-8.41,8.75-7.89,15.41s4.45,10.6,10.49,12.73c5.7,2,11.56,1.77,17.33.57C205.35,153.1,212.09,145.33,212.07,133.07Z"/><path d="M6,54.55H40.69V71.11c4.31-4,7.85-7.71,11.77-10.93,19-15.61,61.1-11.18,65.88,27.43a97.57,97.57,0,0,1,.78,11.71c.07,24.53,0,49.06,0,73.59v4.83H84.59V173c0-20.61.11-41.22-.07-61.82a49.61,49.61,0,0,0-1.77-13.65C79.61,87,70.5,82,58.57,83.69,48.23,85.13,40.89,93.87,40.82,105.4c-.14,22.15,0,44.3,0,66.44v5.81H6Z"/><path d="M401.59,39.64V9.35h34.49V39.64Z"/></svg>